<mxfile host="app.diagrams.net" agent="Mozilla/5.0 (Windows NT 10.0; Win64; x64) AppleWebKit/537.36 (KHTML, like Gecko) Chrome/134.0.0.0 Safari/537.36 Edg/134.0.0.0" version="26.2.4">
  <diagram id="C5RBs43oDa-KdzZeNtuy" name="Page-1">
    <mxGraphModel dx="1207" dy="807" grid="1" gridSize="10" guides="1" tooltips="1" connect="1" arrows="1" fold="1" page="1" pageScale="1" pageWidth="827" pageHeight="1169" math="0" shadow="0">
      <root>
        <mxCell id="WIyWlLk6GJQsqaUBKTNV-0" />
        <mxCell id="WIyWlLk6GJQsqaUBKTNV-1" parent="WIyWlLk6GJQsqaUBKTNV-0" />
        <mxCell id="uAyUIbbngBeuc-5yOXUj-2" value="" style="edgeStyle=orthogonalEdgeStyle;rounded=0;orthogonalLoop=1;jettySize=auto;html=1;" edge="1" parent="WIyWlLk6GJQsqaUBKTNV-1" source="uAyUIbbngBeuc-5yOXUj-0" target="uAyUIbbngBeuc-5yOXUj-1">
          <mxGeometry relative="1" as="geometry" />
        </mxCell>
        <mxCell id="uAyUIbbngBeuc-5yOXUj-0" value="开始" style="strokeWidth=2;html=1;shape=mxgraph.flowchart.start_1;whiteSpace=wrap;fillColor=#ffe6cc;strokeColor=#d79b00;" vertex="1" parent="WIyWlLk6GJQsqaUBKTNV-1">
          <mxGeometry x="437.5" y="170" width="100" height="60" as="geometry" />
        </mxCell>
        <mxCell id="uAyUIbbngBeuc-5yOXUj-6" value="" style="edgeStyle=orthogonalEdgeStyle;rounded=0;orthogonalLoop=1;jettySize=auto;html=1;" edge="1" parent="WIyWlLk6GJQsqaUBKTNV-1" source="uAyUIbbngBeuc-5yOXUj-1" target="uAyUIbbngBeuc-5yOXUj-5">
          <mxGeometry relative="1" as="geometry" />
        </mxCell>
        <mxCell id="uAyUIbbngBeuc-5yOXUj-1" value="点击上/下一页" style="whiteSpace=wrap;html=1;strokeWidth=2;fillColor=#f5f5f5;fontColor=#333333;strokeColor=#666666;" vertex="1" parent="WIyWlLk6GJQsqaUBKTNV-1">
          <mxGeometry x="427.5" y="280" width="120" height="60" as="geometry" />
        </mxCell>
        <mxCell id="uAyUIbbngBeuc-5yOXUj-8" value="是" style="edgeStyle=orthogonalEdgeStyle;rounded=0;orthogonalLoop=1;jettySize=auto;html=1;exitX=0;exitY=0.5;exitDx=0;exitDy=0;" edge="1" parent="WIyWlLk6GJQsqaUBKTNV-1" source="uAyUIbbngBeuc-5yOXUj-5" target="uAyUIbbngBeuc-5yOXUj-7">
          <mxGeometry relative="1" as="geometry" />
        </mxCell>
        <mxCell id="uAyUIbbngBeuc-5yOXUj-10" value="否" style="edgeStyle=orthogonalEdgeStyle;rounded=0;orthogonalLoop=1;jettySize=auto;html=1;exitX=1;exitY=0.5;exitDx=0;exitDy=0;" edge="1" parent="WIyWlLk6GJQsqaUBKTNV-1" source="uAyUIbbngBeuc-5yOXUj-5" target="uAyUIbbngBeuc-5yOXUj-9">
          <mxGeometry relative="1" as="geometry" />
        </mxCell>
        <mxCell id="uAyUIbbngBeuc-5yOXUj-5" value="判断页码是否存在" style="rhombus;whiteSpace=wrap;html=1;strokeWidth=2;fillColor=#dae8fc;strokeColor=#6c8ebf;" vertex="1" parent="WIyWlLk6GJQsqaUBKTNV-1">
          <mxGeometry x="414" y="360" width="147" height="70" as="geometry" />
        </mxCell>
        <mxCell id="uAyUIbbngBeuc-5yOXUj-12" value="" style="edgeStyle=orthogonalEdgeStyle;rounded=0;orthogonalLoop=1;jettySize=auto;html=1;" edge="1" parent="WIyWlLk6GJQsqaUBKTNV-1" source="uAyUIbbngBeuc-5yOXUj-7" target="uAyUIbbngBeuc-5yOXUj-11">
          <mxGeometry relative="1" as="geometry" />
        </mxCell>
        <mxCell id="uAyUIbbngBeuc-5yOXUj-7" value="跳转到上/下一页" style="whiteSpace=wrap;html=1;strokeWidth=2;fillColor=#f5f5f5;fontColor=#333333;strokeColor=#666666;" vertex="1" parent="WIyWlLk6GJQsqaUBKTNV-1">
          <mxGeometry x="320" y="480" width="120" height="60" as="geometry" />
        </mxCell>
        <mxCell id="uAyUIbbngBeuc-5yOXUj-9" value="显示“没有上/下一页”" style="whiteSpace=wrap;html=1;strokeWidth=2;fillColor=#f5f5f5;fontColor=#333333;strokeColor=#666666;" vertex="1" parent="WIyWlLk6GJQsqaUBKTNV-1">
          <mxGeometry x="540" y="480" width="120" height="60" as="geometry" />
        </mxCell>
        <mxCell id="uAyUIbbngBeuc-5yOXUj-11" value="结束" style="strokeWidth=2;html=1;shape=mxgraph.flowchart.start_1;whiteSpace=wrap;fillColor=#ffe6cc;strokeColor=#d79b00;" vertex="1" parent="WIyWlLk6GJQsqaUBKTNV-1">
          <mxGeometry x="440" y="600" width="100" height="60" as="geometry" />
        </mxCell>
        <mxCell id="uAyUIbbngBeuc-5yOXUj-13" style="edgeStyle=orthogonalEdgeStyle;rounded=0;orthogonalLoop=1;jettySize=auto;html=1;entryX=0.5;entryY=0;entryDx=0;entryDy=0;entryPerimeter=0;exitX=0.5;exitY=1;exitDx=0;exitDy=0;" edge="1" parent="WIyWlLk6GJQsqaUBKTNV-1" source="uAyUIbbngBeuc-5yOXUj-9" target="uAyUIbbngBeuc-5yOXUj-11">
          <mxGeometry relative="1" as="geometry" />
        </mxCell>
      </root>
    </mxGraphModel>
  </diagram>
</mxfile>
